# xmcd CD database file
#
# Track frame offsets:
#	150
#	21387
#	40942
#	58892
#	78672
#	99162
#	119622
#	136807
#	156620
#	174615
#
# Disc length: 2488 seconds
#
# Revision: 0
# Processed by: cddbd v1.5.2PL0 Copyright (c) Steve Scherf et al.
# Submitted via: NeoAudio 9.9.9
#
DISCID=8b09b60a
DTITLE=Issac Delgado - Asi Soy
DYEAR=2008
DGENRE=Salsa
TTITLE0=No Vale La Pena
TTITLE1=La Fiesta
TTITLE2=Perdoname Todo
TTITLE3=Asi Soy
TTITLE4=Ajena
TTITLE5=Ni Con Bala, Ni Con Cañon
TTITLE6=Tu Tienes Magia
TTITLE7=Como La Primera Vez
TTITLE8=Se Fue, Adios
TTITLE9=Tumbaito
EXTD=YEAR: 2008
EXTT0=
EXTT1=
EXTT2=
EXTT3=
EXTT4=
EXTT5=
EXTT6=
EXTT7=
EXTT8=
EXTT9=
PLAYORDER=
